<svg width="14" height="8" viewBox="0 0 14 8" fill="none" xmlns="http://www.w3.org/2000/svg">
<path d="M0.646447 6.64645C0.451184 6.84171 0.451184 7.15829 0.646447 7.35355C0.841709 7.54882 1.15829 7.54882 1.35355 7.35355L0.646447 6.64645ZM7 1L7.35355 0.646447C7.15829 0.451184 6.84171 0.451184 6.64645 0.646447L7 1ZM12.6464 7.35355C12.8417 7.54882 13.1583 7.54882 13.3536 7.35355C13.5488 7.15829 13.5488 6.84171 13.3536 6.64645L12.6464 7.35355ZM1.35355 7.35355L7.35355 1.35355L6.64645 0.646447L0.646447 6.64645L1.35355 7.35355ZM6.64645 1.35355L12.6464 7.35355L13.3536 6.64645L7.35355 0.646447L6.64645 1.35355Z" fill="url(#paint0_linear_882_566)"/>
<path d="M0.646447 6.64645C0.451184 6.84171 0.451184 7.15829 0.646447 7.35355C0.841709 7.54882 1.15829 7.54882 1.35355 7.35355L0.646447 6.64645ZM7 1L7.35355 0.646447C7.15829 0.451184 6.84171 0.451184 6.64645 0.646447L7 1ZM12.6464 7.35355C12.8417 7.54882 13.1583 7.54882 13.3536 7.35355C13.5488 7.15829 13.5488 6.84171 13.3536 6.64645L12.6464 7.35355ZM1.35355 7.35355L7.35355 1.35355L6.64645 0.646447L0.646447 6.64645L1.35355 7.35355ZM6.64645 1.35355L12.6464 7.35355L13.3536 6.64645L7.35355 0.646447L6.64645 1.35355Z" fill="white" fill-opacity="0.2"/>
<defs>
<linearGradient id="paint0_linear_882_566" x1="13" y1="4" x2="1" y2="4" gradientUnits="userSpaceOnUse">
<stop stop-color="#482BFF"/>
<stop offset="1" stop-color="#007AFF"/>
</linearGradient>
</defs>
</svg>
