<svg width="24" height="24" viewBox="0 0 24 24" fill="none" xmlns="http://www.w3.org/2000/svg">
<path d="M19.5 11C19.5 10.7239 19.2761 10.5 19 10.5C18.7239 10.5 18.5 10.7239 18.5 11H19.5ZM7 17.5C6.72386 17.5 6.5 17.7239 6.5 18C6.5 18.2761 6.72386 18.5 7 18.5V17.5ZM8.64645 21.3536C8.84171 21.5488 9.15829 21.5488 9.35355 21.3536C9.54882 21.1583 9.54882 20.8417 9.35355 20.6464L8.64645 21.3536ZM6 18L5.64645 17.6464C5.45119 17.8417 5.45119 18.1583 5.64645 18.3536L6 18ZM9.35355 15.3536C9.54882 15.1583 9.54882 14.8417 9.35355 14.6464C9.15829 14.4512 8.84171 14.4512 8.64645 14.6464L9.35355 15.3536ZM4.5 13C4.5 13.2761 4.72386 13.5 5 13.5C5.27614 13.5 5.5 13.2761 5.5 13H4.5ZM17 6.5C17.2761 6.5 17.5 6.27614 17.5 6C17.5 5.72386 17.2761 5.5 17 5.5V6.5ZM15.3536 2.64645C15.1583 2.45119 14.8417 2.45119 14.6464 2.64645C14.4512 2.84171 14.4512 3.15829 14.6464 3.35355L15.3536 2.64645ZM18 6L18.3536 6.35355C18.5488 6.15829 18.5488 5.84171 18.3536 5.64645L18 6ZM14.6464 8.64645C14.4512 8.84171 14.4512 9.15829 14.6464 9.35355C14.8417 9.54882 15.1583 9.54882 15.3536 9.35355L14.6464 8.64645ZM5 10H5.5H5ZM9 6V5.5V6ZM15 18V18.5V18ZM18.5 11V14H19.5V11H18.5ZM15 17.5L7 17.5V18.5L15 18.5V17.5ZM9.35355 20.6464L6.35355 17.6464L5.64645 18.3536L8.64645 21.3536L9.35355 20.6464ZM6.35355 18.3536L9.35355 15.3536L8.64645 14.6464L5.64645 17.6464L6.35355 18.3536ZM5.5 13L5.5 10H4.5L4.5 13H5.5ZM9 6.5L17 6.5V5.5L9 5.5V6.5ZM14.6464 3.35355L17.6464 6.35355L18.3536 5.64645L15.3536 2.64645L14.6464 3.35355ZM17.6464 5.64645L14.6464 8.64645L15.3536 9.35355L18.3536 6.35355L17.6464 5.64645ZM5.5 10C5.5 8.067 7.067 6.5 9 6.5V5.5C6.51472 5.5 4.5 7.51472 4.5 10H5.5ZM18.5 14C18.5 15.933 16.933 17.5 15 17.5V18.5C17.4853 18.5 19.5 16.4853 19.5 14H18.5Z" fill="white"/>
</svg>
