<svg width="16" height="17" viewBox="0 0 16 17" fill="none" xmlns="http://www.w3.org/2000/svg" stroke="#ef4444" strokeWidth="1">
<path d="M14.4417 12.1958L13.9814 12.0004L14.4417 12.1958ZM5.26553 15.9032L5.46089 15.443L5.26553 15.9032ZM1.55812 6.72706L1.09787 6.5317L1.55812 6.72706ZM4.28536 4.12858C4.51211 3.97098 4.56817 3.6594 4.41057 3.43265C4.25297 3.20589 3.9414 3.14983 3.71464 3.30743L4.28536 4.12858ZM12.286 3.30744C12.0593 3.14984 11.7477 3.20589 11.5901 3.43263C11.4325 3.65938 11.4886 3.97096 11.7153 4.12857L12.286 3.30744ZM7.50003 8.5C7.50003 8.77614 7.72389 9 8.00003 9C8.27617 9 8.50003 8.77614 8.50003 8.5H7.50003ZM8.50003 0.5C8.50003 0.223858 8.27617 0 8.00003 0C7.72389 0 7.50003 0.223858 7.50003 0.5H8.50003ZM13.9814 12.0004C12.5792 15.3039 8.7644 16.8452 5.46089 15.443L5.07016 16.3635C8.88205 17.9815 13.2839 16.2031 14.9019 12.3912L13.9814 12.0004ZM5.46089 15.443C2.15739 14.0407 0.616117 10.2259 2.01837 6.92243L1.09787 6.5317C-0.520182 10.3436 1.25827 14.7454 5.07016 16.3635L5.46089 15.443ZM2.01837 6.92243C2.51523 5.7519 3.31396 4.80373 4.28536 4.12858L3.71464 3.30743C2.59295 4.08704 1.67054 5.18256 1.09787 6.5317L2.01837 6.92243ZM11.7153 4.12857C14.1881 5.84735 15.2045 9.11896 13.9814 12.0004L14.9019 12.3912C16.3138 9.06507 15.1397 5.29095 12.286 3.30744L11.7153 4.12857ZM8.50003 8.5V0.5H7.50003V8.5H8.50003Z" fill="#676561" />
</svg>